<svg id="Layer_1" data-name="Layer 1" xmlns="http://www.w3.org/2000/svg" viewBox="0 0 607.23 149.66"><defs><style>.cls-1{fill:#ef323a;}</style></defs><title>clavax logo-vector2</title><path class="cls-1" d="M1252.23,216.69c0-17.61-10.6-26.61-25.61-26.61-32.21,0-46.82,32.61-46.82,60,0,19.61,9.6,36.82,32.42,36.82,17.41,0,30.81-13.4,33.61-28.41h31.41c-12.81,39.81-34.42,54.82-65.43,54.82-40,0-63.43-23-63.43-63.23,0-46.22,29.81-86.44,78-86.44,33,0,58,18.21,57.22,53Zm58,93.24h-28.41l30.41-142.86h28.41l-30.41,142.86Zm122.63-61.62-9.2,41.62c-1,3.6-1.4,10-1.4,14a21,21,0,0,0,1,6H1394.8v-10.2c-7.81,8.8-20,13-31.61,13-22.61,0-33.61-12.8-33.61-27.21,0-19.81,15-32.21,39.62-35.21,26.81-3.2,39.42-1.8,39.42-15,0-10.2-10.8-12.61-18-12.61-10.2,0-19.21,4.8-21,15.21H1343c3.6-26,25.61-34.22,49-34.22,18.41,0,43.42,4,43,27.21,0,4.4-1,11-2.2,17.41Zm-53.82,17c-10.8,1.2-21,3.8-21,16.81,0,7.8,7.4,11.61,15.61,11.61,17.61,0,23.41-12.21,26.61-23.41l2.8-10c-7.2,4.2-15.81,4.4-24,5Zm113.8,44.62h-32.41l-13.61-103.44H1476l6.4,73.63h.4l36.61-73.63h30L1492.8,309.93Zm148.62-61.62-9.2,41.62c-1,3.6-1.4,10-1.4,14a21,21,0,0,0,1,6H1603.4v-10.2c-7.8,8.8-20,13-31.61,13-22.61,0-33.62-12.8-33.62-27.21,0-19.81,15-32.21,39.62-35.21,26.81-3.2,39.42-1.8,39.42-15,0-10.2-10.8-12.61-18-12.61-10.2,0-19.21,4.8-21,15.21h-26.61c3.6-26,25.61-34.22,49-34.22,18.41,0,43.42,4,43,27.21,0,4.4-1,11-2.2,17.41Zm-53.82,17c-10.8,1.2-21,3.8-21,16.81,0,7.8,7.4,11.61,15.61,11.61,17.61,0,23.41-12.21,26.61-23.41l2.8-10c-7.2,4.2-15.81,4.4-24,5Zm125-9.2,26.21,53.82h-30l-15-34-27.61,34H1634l48-55.42-23.41-48H1689l11.4,29.81,23.41-29.81h31.81l-43,49.62Z" transform="translate(-1148.38 -163.67)"/></svg>